PathFileType	4	(X/Y/Z)	SUBJ63_0_static_RCNL2025.trc
DataRate	CameraRate	NumFrames	NumMarkers	Units	OrigDataRate	OrigDataStartFrame	OrigNumFrames
100	100	6	25	mm	100	88	116
Frame#	Time	R_Shoulder			L_Shoulder			C7			J_Notch			R_Elbow			L_Elbow			R_Wrist			L_Wrist			R_Asis			L_Asis			Sacral			Thoracic			Sternum			R_Thigh_Lateral			R_Knee_Lateral			R_Shank_Lateral			R_Ankle_Lateral			R_Heel			R_Toe			L_Thigh_Lateral			L_Knee_Lateral			L_Shank_Lateral			L_Ankle_Lateral			L_Heel			L_Toe		
		X1	Y1	Z1	X2	Y2	Z2	X3	Y3	Z3	X4	Y4	Z4	X5	Y5	Z5	X6	Y6	Z6	X7	Y7	Z7	X8	Y8	Z8	X9	Y9	Z9	X10	Y10	Z10	X11	Y11	Z11	X12	Y12	Z12	X13	Y13	Z13	X14	Y14	Z14	X15	Y15	Z15	X16	Y16	Z16	X17	Y17	Z17	X18	Y18	Z18	X19	Y19	Z19	X20	Y20	Z20	X21	Y21	Z21	X22	Y22	Z22	X23	Y23	Z23	X24	Y24	Z24	X25	Y25	Z25
88	0.87000000	-336.498566	1298.104614	-43.477089	-331.321289	1301.296509	-384.383667	-420.060699	1362.519043	-218.355164	-297.319946	1262.092163	-216.678452	-361.580841	1003.253418	33.647648	-349.635956	1002.437378	-473.983795	-290.650528	787.480530	65.199024	-281.327347	789.778229	-499.198410	-256.578766	847.808960	-88.897720	-242.232620	844.021118	-341.036194	-475.293396	866.137329	-230.307663	-487.347015	1170.659790	-218.041473	-231.579025	1090.227539	-215.424210	-357.951294	508.906067	-42.684032	-367.886292	452.362274	-91.801529	-400.215179	272.366882	-47.000229	-411.212219	61.245396	-127.510391	-453.453217	58.589218	-178.968079	-293.989105	47.124794	-130.817825	-340.849152	473.939331	-425.009033	-348.635010	448.373383	-356.545349	-367.651001	258.463959	-396.580658	-389.037476	60.632912	-323.060181	-441.350128	53.151764	-275.767242	-269.592468	44.124062	-305.257446
89	0.88000000	-336.535461	1298.107544	-43.488609	-331.324707	1301.297607	-384.391510	-420.067383	1362.521362	-218.347687	-297.356079	1262.107788	-216.583115	-361.802246	1003.255249	33.552475	-349.740112	1002.476685	-474.107941	-290.667252	787.503021	65.214415	-281.329926	789.825317	-499.243958	-256.582489	847.860901	-88.874794	-242.235687	844.062195	-341.031464	-475.328644	866.171936	-230.403976	-487.365601	1170.641235	-218.016464	-231.581665	1090.264160	-215.393524	-357.813507	508.833435	-42.888092	-367.905273	452.394775	-91.776894	-400.136353	272.355835	-46.999775	-411.173492	61.261475	-127.515968	-453.443237	58.583664	-178.960876	-293.993591	47.125957	-130.795486	-340.820587	474.055023	-425.056061	-348.626190	448.342621	-356.597321	-367.690063	258.450653	-396.552429	-389.076935	60.639961	-323.062042	-441.378540	53.155125	-275.722260	-269.666321	44.184074	-305.250977
90	0.89000000	-336.516846	1298.137573	-43.498898	-331.339050	1301.306641	-384.374237	-420.074036	1362.457642	-218.328186	-297.296143	1262.246338	-216.603500	-361.743683	1003.309387	33.577480	-349.762024	1002.464050	-474.118439	-290.608795	787.519440	65.260769	-281.246414	789.872772	-499.287201	-256.560364	847.840515	-88.981331	-242.242249	844.046082	-340.999512	-475.371918	866.087219	-230.356857	-487.384216	1170.581177	-217.999863	-231.539383	1090.355469	-215.403259	-357.897064	508.753784	-42.809093	-367.902710	452.331116	-91.806343	-400.100769	272.303833	-46.993343	-411.193451	61.325024	-127.520615	-453.431488	58.571842	-178.983368	-293.987640	47.125137	-130.805984	-340.923157	473.954987	-424.817444	-348.625397	448.340393	-356.603912	-367.773010	258.361115	-396.499908	-389.084625	60.656246	-323.080383	-441.247955	53.214027	-275.873108	-269.689178	44.179440	-305.309662
91	0.90000000	-336.568726	1298.154907	-43.453293	-331.450653	1301.348633	-384.331268	-420.149963	1362.468994	-218.288757	-297.253632	1262.247803	-216.735031	-361.580353	1003.336487	33.619221	-349.745087	1002.473572	-474.084930	-290.535278	787.568115	65.234602	-281.287537	789.921906	-499.330017	-256.627930	847.938782	-88.965622	-242.362869	844.131470	-340.932312	-475.380463	866.082031	-230.237152	-487.331268	1170.542969	-218.042480	-231.518723	1090.394043	-215.359314	-357.856323	508.749207	-42.879669	-367.801208	452.377838	-91.746735	-400.182281	272.278748	-46.940346	-411.242889	61.288773	-127.509590	-453.443726	58.583336	-178.965302	-294.038635	47.067070	-130.774597	-340.996613	473.959869	-424.774933	-348.625580	448.340912	-356.602234	-367.678406	258.451874	-396.619659	-389.093842	60.682972	-323.118835	-441.272339	53.253941	-275.938141	-269.682739	44.178577	-305.344299
92	0.91000000	-336.551514	1298.147461	-43.485237	-331.429138	1301.296875	-384.308197	-420.233490	1362.481445	-218.322052	-297.298584	1262.232544	-216.575134	-361.386780	1003.330566	33.714989	-349.663940	1002.495239	-474.116638	-290.519760	787.591705	65.234121	-281.260010	789.918549	-499.344574	-256.561005	847.941223	-88.856934	-242.329971	844.125366	-340.865295	-475.413574	866.045715	-230.335510	-487.415619	1170.494873	-217.990082	-231.505585	1090.433716	-215.438446	-357.787720	508.708191	-42.922848	-367.780701	452.375427	-91.770767	-400.253235	272.301361	-46.902458	-411.177917	61.282776	-127.508324	-453.447113	58.586151	-178.962143	-293.997955	47.069641	-130.706680	-340.994873	473.957764	-424.781006	-348.634430	448.374847	-356.546326	-367.642212	258.461334	-396.496063	-389.064240	60.672256	-323.067291	-441.471008	53.166687	-275.720764	-269.664978	44.123356	-305.263306
93	0.92000000	-336.601776	1298.172607	-43.432533	-331.416534	1301.292603	-384.305054	-420.218964	1362.473267	-218.349991	-297.356049	1262.242676	-216.603134	-361.253418	1003.343079	33.772202	-349.664948	1002.508057	-474.164185	-290.467484	787.612030	65.285496	-281.274048	789.875641	-499.363998	-256.651154	847.908997	-88.697960	-242.311935	844.151978	-340.839844	-475.411865	866.042603	-230.348419	-487.425476	1170.496216	-217.982925	-231.563416	1090.462280	-215.323242	-357.753326	508.704346	-42.923157	-367.809967	452.375793	-91.719460	-400.240173	272.293945	-46.862606	-411.152618	61.278313	-127.538979	-453.446564	58.585682	-178.962753	-293.937653	47.127972	-130.749451	-340.925598	473.955292	-424.842407	-348.619751	448.354370	-356.596344	-367.624481	258.472260	-396.619568	-389.094879	60.666050	-323.051514	-441.274109	53.044952	-275.790466	-269.672699	44.126431	-305.253418
